<!-- by TradingView --><svg width="56" height="56" viewBox="0 0 56 56" xmlns="http://www.w3.org/2000/svg"><path fill="url(#a)" d="M0 0h56v56H0z"/><path d="M30.06 13.3a6.98 6.98 0 0 0-1.8-.02c-4.32-.04-7.28-.05-8.89-.04-.45 0-.84-.03-1.14-.11.25-.08.62-.12 1.1-.12a2571.55 2571.55 0 0 1 19.53.03l.02.03a.08.08 0 0 1 0 .08l-.03.05a.08.08 0 0 1-.07.05l-8.72.06Z" fill="#EEB55D"/><path d="M18.23 13.13c.3.08.69.11 1.14.11 1.6-.01 4.57 0 8.88.04l-3.75.15a77.89 77.89 0 0 1-5.8.07c-.24 0-.25.06-.04.17.1.04.23.07.42.06 2.06 0 4.13.04 6.2.12l-6.36-.04c-.05 0-.07.02-.07.07v1.31c0 .06-.03.1-.1.1h-.36c-.04 0-.09.02-.12.05a.19.19 0 0 0-.06.13v1.28c0 .05-.02.09-.07.1l-.18.1a.11.11 0 0 0-.06.1l.07 7.72v4.68L17.95 39c0 .06.03.1.09.1l.1.03c.06.01.08.05.08.1v1.41c0 .07.03.1.1.1h.45c.03 0 .05.01.07.03a.1.1 0 0 1 .02.07v1.21c0 .03.01.05.03.07a.1.1 0 0 0 .07.03l4.38-.02h13.63c.05 0 .1-.03.15-.06a.23.23 0 0 0 .07-.14c.06-.42.03-.78-.1-1.08.2-.12.39-.16.57-.11.05.01.08.04.1.08.08.14.2.19.4.13a.3.3 0 0 1-.13.04c-.05.01-.06.04-.03.08.05.07.2.14.49.21a.07.07 0 0 1 .05.05.08.08 0 0 1-.01.07c-.12.16-.16.37-.12.62a.16.16 0 0 1-.06.16.15.15 0 0 1-.16.01c-.17-.08-.23-.22-.2-.4.04-.16-.01-.27-.16-.34l-.1-.04c-.17-.04-.24.02-.23.16.02.2 0 .37-.07.52a.17.17 0 0 0 .07.21l.08.02 1.18.06a.1.1 0 0 0 .06-.03.1.1 0 0 0 .03-.06l.03-.73.06.7c0 .02 0 .05.02.08.06.13.07.27.03.42a.12.12 0 0 1-.1.1c-.45.1-.79.06-1-.09-.09-.24-.4-.35-.96-.33l-6.19-.02c-4.27-.03-8.14-.03-11.62-.02a5.9 5.9 0 0 0-.8.13l-.05.1c-.04.07-.02.1.06.1 1.84-.02 3.7-.03 5.55-.03l2.96-.05c1.97-.04 3.95 0 5.95.1a38.93 38.93 0 0 1-6.91.2c-.96.01-2.18.01-3.67-.02a50.43 50.43 0 0 0-2.76 0c-.3-.01-.55-.02-.78 0a.22.22 0 0 1-.14-.05c-.05-.03-.08-.04-.11-.04a9.07 9.07 0 0 1-1.2.03.18.18 0 0 1-.06-.05c-.1-.1-.1-.25-.03-.44l1.17-.02c.04 0 .07-.01.1-.04a.13.13 0 0 0 .03-.09v-1.08c0-.09-.04-.11-.11-.08-.09.03-.23 0-.43-.08a.08.08 0 0 1-.04-.07.08.08 0 0 1 .04-.08l.05-.02a.1.1 0 0 0 .06-.1l.05-1.23c0-.06-.03-.09-.08-.1-.1 0-.17.05-.23.15a.86.86 0 0 0-.06.2.23.23 0 0 1-.13.19.18.18 0 0 0-.1.13.19.19 0 0 0 .06.17c.07.05.12.13.15.22.02.05.02.1 0 .14-.06.12-.08.24-.06.37 0 .06-.02.09-.07.1l-.37.05L17 35.1c.17.04.26 0 .26-.12l.04-4.65a230.2 230.2 0 0 0 .08-.52c.04.9.05 1.8.04 2.7 0 .03 0 .06.03.09a.1.1 0 0 0 .07.03h.07a.07.07 0 0 0 .06-.02.08.08 0 0 0 .02-.05l-.01-11.9-.05-3.95c0-.02 0-.04.02-.05a.1.1 0 0 1 .04-.04l.11-.05c.07-.03.1-.08.1-.15v-1.02c0-.06-.03-.08-.09-.08-.07 0-.2.04-.38.1-.04.02-.1 0-.17-.06-.05-.04-.05-.08-.02-.13.1-.13.21-.17.35-.12l.22.06c.08-.01.15-.06.2-.16a.08.08 0 0 0-.03-.11.08.08 0 0 0-.04-.01h-.59c-.13 0-.14-.03-.04-.12l.15-.02c.35.02.6 0 .73-.03.06-.02.1-.05.14-.1a.3.3 0 0 0 .06-.16l.07-.82c0-.13-.05-.2-.16-.21a2.48 2.48 0 0 0-1.14.05c-.1-.05-.12-.16-.06-.33a.12.12 0 0 1 .1-.08c.4-.05.74-.03 1.05.07Z" fill="#AF7737"/><path d="M30.06 13.3a168.64 168.64 0 0 0 7.28.19 5.84 5.84 0 0 1 1.59-.04l.01.03v1.26c0 .02-.01.03-.03.03h-1.09c-.06 0-.06.02-.01.05.08.05.14.07.17.06.21-.05.45-.05.7 0 .04 0 .07 0 .09-.02.05-.03.09-.02.12.03.06.1.07.2.03.28-.02.05-.05.06-.1.03-.18-.14-.35-.12-.5.05l-.28-.16a.11.11 0 0 0-.12 0 .5.5 0 0 0-.16.18c-.17.03-.33.02-.5 0-.04-.01-.06-.04-.06-.09v-1.15a.15.15 0 0 0-.04-.1.15.15 0 0 0-.1-.05H31.1l-5.83-.03c-2.07-.08-4.14-.12-6.2-.12a.92.92 0 0 1-.42-.06c-.21-.12-.2-.17.04-.17.95.01 1.92.02 2.9.01.84 0 1.8-.03 2.9-.08l3.75-.15a6.98 6.98 0 0 1 1.8.03Z" fill="#C69749"/><path d="M17.66 20.64c-.12.02-.19.01-.19 0-.06-.66-.06-1.34-.01-2.05.03-.48.01-1.08-.06-1.82 0-.04-.02-.06-.06-.06h-.05c-.02 0-.04 0-.05.02a.07.07 0 0 0-.02.05l.08 13.54-.04 4.65c0 .12-.09.16-.26.12.02-4.85.03-9.7.01-14.56 0-.9.03-2.99.07-6.24 0-.25.06-.54.06-.82.27-.1.65-.12 1.14-.05.11.01.17.08.16.2l-.07.83a.3.3 0 0 1-.06.16.28.28 0 0 1-.14.1c-.14.04-.38.05-.73.03-.07 0-.12 0-.15.02-.1.09-.09.13.04.13l.59-.02a.08.08 0 0 1 .08.09l-.01.04c-.05.1-.12.15-.2.16a.58.58 0 0 1-.22-.06c-.14-.05-.25-.01-.35.12-.03.05-.03.1.02.13.07.06.13.08.17.07.19-.07.31-.1.38-.11.06 0 .09.02.09.08v1.02c0 .07-.03.12-.1.15l-.11.05a.1.1 0 0 0-.04.04.1.1 0 0 0-.02.05l.05 3.94Z" fill="#EEB55D"/><path d="m24.31 15.5-.3-.07a.13.13 0 0 1-.08-.08.35.35 0 0 1 0-.2c0-.06.05-.1.1-.1h1.23a.1.1 0 0 1 .06.03c.02.01.03.03.04.06.03.09.02.17-.04.23-.03.04-.09.06-.18.07l-.24.05c-.04.02-.07.05-.07.1v.93c0 .1-.04.15-.14.15h-.13c-.12 0-.18-.07-.18-.19v-.89c0-.05-.02-.08-.07-.09ZM25.94 16.4c0 .03 0 .08.02.15.02.08 0 .12-.1.12h-.29c-.05 0-.07-.03-.07-.08v-1.44c0-.02 0-.05.02-.06a.1.1 0 0 1 .06-.03c.54-.05 1.55-.1 1.27.81a.18.18 0 0 1-.08.1l-.1.06c-.06.04-.07.09-.04.15l.23.4c.03.07.02.1-.05.1h-.2a.29.29 0 0 1-.23-.12l-.18-.23c-.17-.21-.25-.19-.26.08ZM28.53 16.16c-.06.52-.65.62-1.04.5-.54-.24-.4-.92-.42-1.43a.17.17 0 0 1 .05-.12.16.16 0 0 1 .12-.05h.12c.11 0 .17.05.17.16V16c0 .2.09.29.28.28.2 0 .3-.1.3-.28v-.75c0-.04.01-.08.04-.12a.17.17 0 0 1 .1-.05l.12-.01c.11-.01.17.04.16.16v.94ZM30.49 15.04l.05 1.5c0 .09-.04.12-.1.12h-.25c-.09 0-.13-.04-.12-.13l.03-.5c.01-.18-.04-.2-.15-.06l-.18.3a.1.1 0 0 1-.1.05.1.1 0 0 1-.09-.06.97.97 0 0 0-.23-.35.06.06 0 0 0-.07 0 .06.06 0 0 0-.03.05l.05.55c0 .06-.02.1-.06.1-.33.14-.47.06-.42-.22l.01-1.24c0-.06.03-.09.08-.1.42-.07.55.18.69.5a.1.1 0 0 0 .08.07.1.1 0 0 0 .09-.06c.16-.36.22-.54.72-.52ZM31.28 16.33l.02.23c.01.07-.02.1-.1.1h-.25c-.07 0-.1-.03-.1-.1v-1.4c0-.07.02-.1.08-.1.4-.04 1.4-.05 1.25.62-.09.38-.36.57-.82.57-.06 0-.08.03-.08.08Z" fill="#F1F1F1"/><path d="M38.32 15.25c-.02.08.03.13.13.15.06.01.2 0 .38-.06.05-.01.08 0 .1.06.04.2.04.4.01.6-.1.01-.17-.01-.23-.07a.19.19 0 0 0-.26 0 .2.2 0 0 0-.06.07c-.05.15-.05.27.01.35.03.05.07.07.12.07a.6.6 0 0 0 .27-.06c.06-.03.1-.01.1.06v.33c0 .05-.03.08-.08.08h-.2c-.05 0-.07.02-.07.07v13.88c0 .16-.03.17-.07.01-.1-.32-.2-.73-.31-1.23V19.42c0-.77-.02-1.55-.06-2.32a.3.3 0 0 0-.1-.21.23.23 0 0 1-.05-.13 5.73 5.73 0 0 1-.01-1.35c0-.06 0-.1-.03-.12-.03-.03-.08-.04-.15-.03a.5.5 0 0 1 .16-.18.11.11 0 0 1 .12 0l.28.16Z" fill="#EEB55D"/><path d="M26.18 15.83c.15-.01.26-.1.26-.2s-.13-.18-.28-.17c-.15 0-.27.1-.27.2s.13.17.29.17ZM31.59 15.48l-.16-.01a.15.15 0 0 0-.16.14v.06c-.01.08.05.15.13.16l.16.01c.09.01.16-.05.16-.14v-.06a.15.15 0 0 0-.13-.16Z" fill="#151515"/><path d="m38.94 16 .05 23.87-.18-.06a.63.63 0 0 0-.2-.2.1.1 0 0 0-.12 0 .83.83 0 0 0-.21.24c-.16.06-.2.28-.14.64a.08.08 0 0 0 .06.06.07.07 0 0 0 .07-.03.5.5 0 0 1 .39-.2c.06-.01.1.01.12.06l.02.07c0 .05-.02.09-.06.11l-.07.04c-.05.04-.06.08-.03.14.03.05.07.09.12.12.06.03.06.06 0 .1a.18.18 0 0 1-.12 0c-.1-.01-.2-.09-.29-.21-.03-.05-.07-.06-.12-.02-.05.03-.08.1-.09.2-.18.06-.31.02-.38-.12a.15.15 0 0 0-.11-.08.72.72 0 0 0-.56.1c-.38-.6-.66-1.4-.84-2.37l1.04 2.15c.02.06.07.09.13.09h.38c.05 0 .08-.03.08-.09v-1.37c0-.06.03-.1.07-.13l.07-.04a.13.13 0 0 0 .07-.12l.07-9.4c.1.51.2.92.3 1.24.05.16.08.15.08-.01V16.9c0-.05.02-.07.06-.07h.2c.06 0 .09-.03.09-.08v-.33c0-.07-.04-.1-.1-.06a.6.6 0 0 1-.27.06.13.13 0 0 1-.12-.07c-.06-.08-.06-.2 0-.35a.2.2 0 0 1 .13-.12.19.19 0 0 1 .18.05c.06.06.13.08.23.07Z" fill="#C69749"/><path d="m17.66 20.65.01 11.9a.08.08 0 0 1-.02.05.07.07 0 0 1-.06.02h-.07a.1.1 0 0 1-.07-.04.11.11 0 0 1-.03-.08 47.23 47.23 0 0 0-.04-2.74l-.08.56-.08-13.54c0-.02 0-.04.02-.05a.06.06 0 0 1 .05-.02h.05c.04 0 .06.02.06.06.07.74.09 1.34.06 1.82-.05.71-.05 1.39.01 2.05 0 .02.07.02.19 0Z" fill="#DDBD6D"/><path d="m32.56 19.92-.04.91-.59 2.08c-.05.18-.04.37-.04.55 0 .08-.04.13-.12.13l-.08.01c-.08 0-.11-.03-.09-.11a.87.87 0 0 0 .02-.46c.18-.43.28-.86.3-1.29.02-.17-.05-.25-.12-.37a.12.12 0 0 1 0-.14c.04-.05.1-.07.16-.06l.05.14a.15.15 0 0 0 .15-.06.17.17 0 0 0 .03-.16l-.32-.81-.05-.84-.14-.25c-.03-.04-.02-.08.02-.11l.35-.27a3.8 3.8 0 0 0-1.3-.58c-.56-.05-1.1.19-1.6.41a.2.2 0 0 1-.22-.04c-.1-.11-.23-.1-.37.04-.34 0-.68.08-1 .24a.15.15 0 0 0-.07.07.15.15 0 0 0 .04.19c.02.02.06.03.09.03h.1c.06 0 .1.02.14.07.05.07.07.16.04.25a.17.17 0 0 1-.1.1c-.16.08-.26.2-.28.36 0 .05-.02.1-.05.13-.29.39-.6.8-.45 1.37.03.12.09.19.18.21a.07.07 0 0 0 .06-.01.07.07 0 0 0 .03-.07l-.03-.28c0-.02.01-.04.04-.04l.4-.04a.05.05 0 0 1 .03.01.04.04 0 0 1 .01.04v.39c0 .05.02.09.05.13.19.2.2.38.06.5l-.44-.08c-.1-.02-.11.01-.07.1.08.13.18.24.34.33.28.15.52.37.7.65l.72 1.02-.28.3a.15.15 0 0 0-.04.14c.07.5.13 1 .15 1.5.02.38.2.76.13 1.2-.01.05-.04.06-.08.02-.04-.03-.06-.1-.06-.24l-.02-.02c0-.19-.12-.28-.16-.43-.08-.35-.01-.63-.42-.75-.03-.03-.04-.05-.03-.06a.9.9 0 0 1 .23-.51.28.28 0 0 0 .06-.23.28.28 0 0 0-.13-.2l-.72-.43c.06-.08.07-.16.04-.24-.03-.05-.06-.06-.12-.04-.05.03-.1.1-.13.23l-.15-.01a1 1 0 0 1-.26-.65.8.8 0 0 0 .03-.66c.06-.18 0-.3-.16-.34a1.3 1.3 0 0 0-.36-.02.12.12 0 0 1-.08-.04.13.13 0 0 1-.05-.08l-.04-.48c0-.08.03-.12.1-.13l.22-.02c.06 0 .1-.04.1-.1 0-.3-.05-.49-.16-.59a.99.99 0 0 1 .11-.9c.12-.62.32-1.22.6-1.78 1.28-1.43 3.2-1.43 4.78-.52.2.12.37.26.52.43.15.17.13.31-.04.44l-.49.37a.11.11 0 0 0-.04.12c.04.22.18.33.4.33ZM22.7 20.73l-.77-.33a.14.14 0 0 0-.14 0l-.5.29a1 1 0 0 1-.24-.26c-.15-.56-.08-.91.22-1.05.04.08.1.14.17.16.49.5.64.05 1.07.02.17 0 .32.04.46.14a.2.2 0 0 0 .28-.06c.08-.12.14-.25.17-.38a.2.2 0 0 0-.02-.15c-.12-.22-.2-.44-.26-.64a.15.15 0 0 0-.05-.09.54.54 0 0 0-.08-.04c-.07-.04-.1-.01-.1.06v.48a.08.08 0 0 1-.03.06.08.08 0 0 1-.07.02c-.2-.04-.32.02-.38.19a.2.2 0 0 1-.1.1.67.67 0 0 1-.25.08c-.1 0-.14-.04-.12-.13l.1-.45c.02-.05.02-.1 0-.16-.17-.44-.88-.23-1.1.02-.32.36-.56.81-.73 1.35-.1.28 0 .62 0 .93l-.3 1.24-.28.43c-.02.05-.02.09.02.13.07.07.17.11.3.13l1.04.15c-.2.27-.42.5-.67.66-.06.04-.05.07.01.08l.18.05a.09.09 0 0 1 .07.05.1.1 0 0 1-.01.09l-.5.7a.2.2 0 0 1-.12.09l-.6.15c-.32.03-.65 0-.99-.1.02-.34.03-.6.05-.74 0-.02.02-.04.06-.05.04-.02.05-.04.05-.08v-.85a.13.13 0 0 1 .07-.1c.34-.2.9-.46 1.03-.93.26-.94.43-1.71.5-2.32.07-.55.43-.9.54-1.38 0-.06.04-.1.1-.12l1.88-.47c.05-.02.1 0 .15.03.28.2.47.45.57.75.02.05.05.1.09.14.12.12.21.23.27.35.02.04.03.08 0 .13-.16.5-.32.86-.47 1.09a1.5 1.5 0 0 1-.57.54Z" fill="#F1F1F1"/><path d="M32.05 18.81a2 2 0 0 0-.7.16c-.25.12-.35.16-.59.2-.2.05-.2.1-.02.18.2.09.45.12.74.1.1 0 .16.03.26.08.03.02.06.02.07 0l.02-.1.04.85c-.28-.16-.59-.23-.91-.22-.06 0-.1-.03-.1-.08l-.02-.06c-.01-.07-.05-.09-.12-.06l-.06.03c.04-.3-.09-.48-.37-.54l-.84-.24-.75-.13c-.04 0-.06-.03-.05-.08.03-.14 0-.23-.09-.26.14-.14.27-.15.37-.04a.2.2 0 0 0 .23.04c.5-.22 1.03-.46 1.6-.41.25.02.68.21 1.29.58Z" fill="#D1D2D1"/><path d="M21.44 19.54c.05.01.06-.07.03-.25-.01-.06 0-.11.02-.16l.13-.3a.1.1 0 0 0-.03-.12.36.36 0 0 0-.28-.08.15.15 0 0 0-.11.07c-.15.22-.13.44.07.68-.3.14-.37.48-.22 1.05-.36-.4-.63-.24-.82.46 0-.3-.1-.65 0-.93.17-.54.41-.99.72-1.35.23-.25.94-.46 1.1-.02.02.05.03.1.02.16l-.1.45c-.03.1 0 .14.1.13.12-.02.2-.04.26-.07a.2.2 0 0 0 .1-.11c.06-.17.18-.23.38-.19a.08.08 0 0 0 .09-.04v-.52c0-.07.04-.1.11-.06l.08.04c.02.02.04.05.05.09.05.2.14.42.26.64.02.05.03.1.02.15-.03.13-.09.26-.17.38a.2.2 0 0 1-.27.05.72.72 0 0 0-.47-.13c-.43.03-.59.48-1.07-.02Z" fill="#9F9F9F"/><path d="M21.44 19.54a.33.33 0 0 1-.17-.16c-.2-.24-.22-.46-.07-.68a.15.15 0 0 1 .11-.07c.11-.01.2.02.28.08a.1.1 0 0 1 .03.12l-.13.3a.26.26 0 0 0-.02.16c.03.18.02.26-.03.25Z" fill="#505050"/><path d="M28.56 18.64c.09.03.12.12.09.26-.01.05 0 .07.05.08l.75.13c-.6.16-1.04.43-1.35.8-.06.06-.05.1.03.13.04.01.07.04.09.07.02.04.01.08-.02.1a.9.9 0 0 1-.54.34.66.66 0 0 0-.33.17c-.02.02-.02.03 0 .05h.05c.14-.13.28-.17.43-.1.15.06.14.1-.02.15-.11.02-.2.05-.28.09-.22.1-.2.18.03.2l.12-.06c.12-.06.24 0 .33.07.05.05.05.09 0 .13a.35.35 0 0 0-.08.1.16.16 0 0 0-.01.14c.11.3.2.49.26.57.22.27.33.56.33.87l-.64-.65c.15-.12.13-.28-.06-.5a.19.19 0 0 1-.05-.12V21.25l-.01-.02a.05.05 0 0 0-.04 0l-.4.03c-.02 0-.03.02-.03.04l.03.28v.04l-.03.03a.07.07 0 0 1-.06.01c-.1-.02-.15-.1-.18-.21-.15-.57.16-.98.45-1.37a.29.29 0 0 0 .05-.13c.02-.16.12-.28.29-.36a.17.17 0 0 0 .1-.1.26.26 0 0 0-.05-.25.16.16 0 0 0-.14-.07h-.1a.14.14 0 0 1-.1-.03.15.15 0 0 1-.04-.18.15.15 0 0 1 .07-.08c.33-.16.67-.24 1.01-.24Z" fill="#9F9F9F"/><path d="m32.05 18.81-.35.27c-.04.03-.05.07-.02.11l.15.24c0 .05 0 .08-.02.1-.01.02-.04.02-.08 0-.1-.05-.15-.09-.25-.08a1.6 1.6 0 0 1-.74-.1c-.18-.07-.17-.13.02-.17.24-.05.34-.09.59-.2a2 2 0 0 1 .7-.17Z" fill="#878683"/><path d="M30.66 19.89c-.2.01-.4 0-.59-.06a.6.6 0 0 0-.47.06l-.33.2c-.18.1-.17.2.02.28.26.11.55.18.86.2.29.01.43-.17.58-.35a.16.16 0 0 1 .16-.05c.03 0 .06.03.08.05l.04.08.07.44c0 .18.1.27.09.4 0 .07-.03.11-.08.15a.88.88 0 0 0-.75.17c-.14.12-.12.18.07.16.25-.03.46.1.62.36-.25.13-.53.21-.85.24a.71.71 0 0 0-.24.06c-.1.05-.16.1-.2.16-.1.19-.07.22.12.1l.19-.09c.06-.03.12-.03.15-.02.07.03.1.08.13.14.02.05.06.08.1.08h.12c.13.03.25.07.33.14-.07.15-.16.3-.27.41a.18.18 0 0 1-.13.06c-.1 0-.2.03-.28.08h-.8a.12.12 0 0 1-.11-.07c-.12-.22-.39-.33-.8-.34 0-.31-.11-.6-.33-.88a2.76 2.76 0 0 1-.26-.56.16.16 0 0 1 0-.14.35.35 0 0 1 .1-.1c.04-.04.04-.09 0-.13-.1-.08-.22-.13-.34-.07a.45.45 0 0 1-.12.06c-.24-.03-.25-.1-.03-.2.07-.04.17-.07.28-.1.16-.03.17-.08.02-.15-.15-.06-.29-.02-.43.11h-.05c-.02-.02-.02-.03 0-.05.1-.09.2-.15.33-.17a.9.9 0 0 0 .54-.33.09.09 0 0 0 .02-.11.13.13 0 0 0-.09-.07c-.08-.02-.09-.07-.04-.14.32-.36.77-.63 1.36-.79.25.08.53.16.84.23.28.07.4.25.37.55Z" fill="#F1F1F1"/><path d="m32.52 20.83.04-.91 2.51-.32c.05 0 .07.02.08.06l.07.78c0 .07-.02.1-.09.11l-.94.1a.1.1 0 0 0-.07.03.1.1 0 0 0-.02.04v.04l.23 2.45c0 .06-.02.1-.08.1l-.85.09c-.06 0-.1-.02-.1-.09l-.23-2.4c0-.06-.03-.08-.09-.08h-.46Z" fill="#ECDB98"/><path d="M31.57 19.9c.1.04.19.03.2-.02.02-.04-.04-.11-.13-.15-.1-.04-.2-.03-.2.02-.03.05.04.12.13.16Z" fill="#9F9F9F"/><path d="m30.66 19.89.06-.03c.06-.03.1-.01.12.06l.02.06c0 .05.04.08.1.08.32 0 .63.07.91.22l.32.8a.17.17 0 0 1-.03.17.15.15 0 0 1-.15.06l-.05-.14-.02-.08a.16.16 0 0 0-.03-.06.15.15 0 0 0-.07-.04l-.76-.25-.07-.44a.16.16 0 0 0-.04-.08.16.16 0 0 0-.16-.05.16.16 0 0 0-.08.05c-.15.18-.3.36-.58.35-.31-.02-.6-.09-.86-.2-.2-.09-.2-.18-.02-.29l.33-.19a.6.6 0 0 1 .47-.06c.19.05.39.07.59.06Z" fill="#1E1E1D"/><path d="M30 20.27a.04.04 0 0 1-.02.03h-.01l-.02.01H29.53c-.1-.02-.17-.04-.17-.08v-.05c-.01-.03.05-.07.15-.1.1-.03.24-.06.4-.07h.02a.04.04 0 0 1 .03.01l.01.01v.02l.02.22Z" fill="#F1F1F1"/><path d="M21.05 20.43a1 1 0 0 0 .23.26l.31.04c-.04.1-.06.18-.05.23.03.13.11.21.26.24-.21.22-.3.52-.26.9l.07.54c-.07-.01-.1.06-.13.2-.14.08-.3.12-.48.13l-1.03-.15c.04-.25.03-.48-.03-.69l.29-1.24c.19-.7.46-.86.82-.46Z" fill="#696868"/><path d="M22.7 20.73a.97.97 0 0 1-.31.25c-.05.02-.09 0-.11-.04-.14-.24-.37-.31-.69-.21l-.3-.04.5-.29a.14.14 0 0 1 .14 0l.77.33Z" fill="#9F9F9F"/><path d="M26.82 20.54a.99.99 0 0 0-.11.9c-1.61-.05-1.12 2.6.43 1.79a.8.8 0 0 1-.03.66l-.45.37a.19.19 0 0 1-.13.05c-.87-.02-1.43-.44-1.68-1.27-.42-1.39.55-2.5 1.97-2.5Z" fill="#ECDB98"/><path d="M30.12 20.84c.07-.07.09-.15.05-.19-.03-.03-.11-.01-.18.05-.06.06-.08.14-.05.18.04.04.12.02.18-.04Z" fill="#9F9F9F"/><path d="M31.96 21.17c-.07-.01-.12 0-.16.06a.12.12 0 0 0 0 .14c.07.13.14.2.13.37-.03.43-.13.86-.3 1.3a.94.94 0 0 1-.47-.34c-.1-.12-.18-.2-.25-.22a.51.51 0 0 0-.36.02c-.03.01-.06.04-.06.06 0 .04.02.07.06.1l-.11-.01c-.05 0-.09-.03-.1-.08a.23.23 0 0 0-.13-.13c-.04-.02-.1-.02-.16.01l-.19.1c-.19.12-.23.08-.11-.1.03-.06.1-.12.2-.16a.71.71 0 0 1 .23-.07c.32-.03.6-.1.85-.24.12-.05.17-.14.17-.25 0-.16-.04-.3-.11-.44a.17.17 0 0 0 .08-.14c.01-.14-.1-.23-.1-.41l.77.25c.03 0 .05.02.07.04l.03.06.02.08Z" fill="#696868"/><path d="m24.25 20.92-.9.08a.06.06 0 0 0-.04.07l.32 3.45c0 .03.03.06.06.05l.9-.08c.03 0 .05-.04.05-.07l-.33-3.45a.06.06 0 0 0-.06-.05ZM21.54 22.1c-.04-.38.05-.69.26-.9l1.16-.13c.09 0 .13.03.14.12l.06.6c0 .08-.03.12-.11.13l-1.51.19Z" fill="#ECDB98"/><path d="M19.97 22.82a.47.47 0 0 1-.3-.13c-.04-.04-.05-.08-.02-.13l.29-.43c.06.21.07.44.03.69Z" fill="#9F9F9F"/><path d="M21.48 24.46c-.05-.4-.02-.83.07-1.3.02-.08 0-.2-.07-.32.02-.14.06-.2.13-.2l1.15-.11c.1 0 .15.03.15.13l.06.63c0 .03 0 .07-.02.1a.12.12 0 0 1-.08.04l-1.11.1c-.05 0-.08.04-.08.1.01.33.05.68.1 1.04.02.13-.08.18-.3.15a.08.08 0 0 1-.05-.04.09.09 0 0 1-.01-.07l.06-.25Z" fill="#ECDB98"/><path d="M30.2 23.34a.56.56 0 0 1 .28-.08c.05 0 .1-.02.13-.06.11-.12.2-.25.27-.4.24.12.41.3.5.52a.1.1 0 0 1 0 .1.09.09 0 0 1-.1.02c-.34-.13-.7-.16-1.08-.1Z" fill="#878683"/><path d="M21.48 22.83c.07.14.09.25.07.33-.1.47-.12.9-.07 1.3-.23.14-.43.22-.59.24l-1.51.14.6-.15a.2.2 0 0 0 .11-.1l.5-.7a.1.1 0 0 0-.06-.13l-.18-.05c-.07-.01-.07-.04-.01-.08.25-.17.47-.4.66-.66.18-.01.34-.05.48-.14ZM19.17 24.6l-.01.03h-.02l-.1-.01a.48.48 0 0 1-.3-.2.5.5 0 0 1-.1-.37h.01a.5.5 0 0 1 .2-.33.48.48 0 0 1 .36-.09l.08.02.02.01v.02l-.14.93Z" fill="#D1D2D1"/><path d="m34.27 27.5-.44.03a.12.12 0 0 1-.12-.07.56.56 0 0 1-.05-.37L33.45 25a.09.09 0 0 0-.03-.05.08.08 0 0 0-.06-.02l-.96.1a.13.13 0 0 1-.12-.08.13.13 0 0 1-.02-.05l-.06-.67c-.01-.1.03-.16.12-.17l3.09-.3c.08-.01.13.03.14.12l.06.66c0 .03 0 .07-.03.1a.15.15 0 0 1-.1.06l-.92.09a.08.08 0 0 0-.07.06v.03l.23 2.42c0 .05-.02.09-.07.11a.82.82 0 0 1-.38.09ZM32.24 26.45c-.04.3-.01.5.07.63a1 1 0 0 0-.03.46c.02.15-.04.23-.18.24l-.7.07c-.13.01-.2-.05-.19-.2.02-.17-.01-.36-.09-.57.05-.08.06-.18.01-.29a.21.21 0 0 0-.1-.1.2.2 0 0 0-.14-.03c-.02 0-.05.03-.09.08-.25-.13-.47-.1-.67.07a.17.17 0 0 0-.06.13c0 .15.03.33.06.56.06.4.66.78.94.97.03.03.03.05 0 .06l-.05.03H31l-.9-.53a.22.22 0 0 0-.13-.03l-.69.07c-.06 0-.1.04-.1.1l-.02.34-.24-.96v-.32c0 .13.02.21.06.25.04.03.07.02.08-.04.07-.43-.1-.81-.13-1.18-.02-.5-.08-1.01-.15-1.51 0-.05 0-.1.04-.14l.28-.3c.15.1.38.14.69.12.05 0 .08.02.08.07l.1 1.1c.01.07.05.1.12.1l.85-.09a.1.1 0 0 0 .09-.1l-.1-1.07c-.01-.11.04-.18.14-.19l.73-.07c.04 0 .09.01.12.04.04.03.06.07.07.12l.25 2.11Z" fill="#E7CF88"/><path d="M27.73 24.6c-.1 0-.18-.01-.2-.05.03-.13.07-.2.12-.23.06-.03.1-.01.12.04.03.08.02.16-.04.24Z" fill="#505050"/><path d="M27.53 24.55c.02.04.1.05.2.05l.72.43a.28.28 0 0 1 .14.2.28.28 0 0 1-.07.23.9.9 0 0 0-.23.51c-.46-.3-1.4-.56-1.87-.14-.4.36-.37 1.02-.02 1.38.31.32.7.35 1.15.1.37-.21.34-.3-.08-.28l-.45.03a.13.13 0 0 1-.1-.03.14.14 0 0 1-.04-.1l-.04-.48c-.01-.1.03-.16.13-.17.39-.07.81-.12 1.27-.17.06 0 .09-.03.08-.08.4.12.34.4.42.75.04.15.16.24.16.43-.07-.05-.12-.07-.16-.06-.02 0-.03.04-.01.11.03.1.04.22.04.32-.55.62-1.34.97-2.15.85a1.67 1.67 0 0 1-1.46-1.5c-.2-1.4.77-2.34 2.12-2.3.07 0 .1-.03.1-.1l.15.02ZM25.03 28.4c.02.04.03.09.03.13 0 .06-.04.1-.1.1l-.88.1c-.07 0-.1-.03-.1-.1l-.24-2.68-.07-.63c-.01-.13.04-.2.17-.21l.7-.07c.14-.01.2.05.22.18l.27 3.17ZM23.58 25.97c-.02.1-.1.15-.24.16-.47.04-.92.12-1.34.12-.04 0-.06.03-.06.08l.03.32c0 .07.04.1.1.1l1.15-.12a.1.1 0 0 1 .07.02.1.1 0 0 1 .03.07l.1.87-.94.12a.56.56 0 0 0-.3.01c-.05.02-.07.06-.06.11l.1 1.06c0 .07-.03.1-.1.11l-.9.1c-.06 0-.09-.03-.1-.08l-.32-3.44c0-.06.02-.1.07-.1a.63.63 0 0 1 .3-.03l2.21-.26c.05 0 .08.02.1.07l.1.71Z" fill="#ECDB98"/><path d="M33.66 27.09c-.02.13 0 .26.05.37.03.05.07.07.12.07l.44-.02.25.33c.03.05.04.1.03.14l-.05.22-.9.1c-.28-.44-.56-.8-.85-1.08-.08-.07-.14-.07-.17.01-.03-.11-.12-.16-.27-.15-.08-.13-.1-.34-.07-.63.48.12.96.34 1.42.64Z" fill="#696868"/><path d="M30.8 26.74c.09.13.2.24.32.34.08.2.11.4.1.57-.02.15.05.21.19.2l.7-.07c.13-.01.2-.1.17-.24a1 1 0 0 1 .03-.46c.15-.01.24.04.27.15v.13c0 .03.03.06.06.1.22.22.42.49.6.81l-.5.15c-.1.03-.14.1-.13.2l.06.64c0 .05.02.1.06.12.03.03.08.04.12.04l.84-.08a.11.11 0 0 1 .1.03.12.12 0 0 1 .03.1c-.02.2 0 .36.08.5l-.3 1.38c-.03.14 0 .27.1.39l.14.33c-.1.19-.22.36-.37.5a.23.23 0 0 1-.13.07.99.99 0 0 0-.43.16c-.13.08-.11.12.04.1.07 0 .19-.05.35-.14.06-.03.1-.01.1.06-.02.42.11.79.4 1.11l.05.12.02.23-.03.35c0 .1-.02.15-.06.18-.06.03-.09.02-.1-.05l-.02-.34c-.02-.12-.08-.18-.2-.19h-.08a.1.1 0 0 0-.07.03.1.1 0 0 0-.03.08c.07.44.06.84-.04 1.2-.02.03-.04.05-.07.06a.4.4 0 0 1-.1 0c0-.02-.05-.04-.14-.06-.06-.01-.08 0-.05.07l.07.15.02.1c.02.26.09.53.22.8.02.05 0 .1-.03.13l-.16.12a.27.27 0 0 0-.09.13.3.3 0 0 0 0 .15c0 .06.03.11.06.16.04.04.08.08.13.1.1.05.16.13.21.24v.04a.04.04 0 0 1-.03.02l-.72.07c-.07 0-.11-.03-.1-.1.03-.39-.27-.5-.53-.65-.15-.31.07-.68.26-.91.23-.29.21-.73.22-1.03a.24.24 0 0 1 .08-.17.23.23 0 0 1 .18-.05c.14.02.25 0 .33-.03.06-.03.06-.05-.01-.05h-.42c-.06 0-.1-.03-.08-.09.06-.53.03-1.04-.1-1.54.12-.36.04-.7-.24-1.02l.42-.1a.18.18 0 0 0 .11-.07.2.2 0 0 0 .03-.13l-.06-.68c-.01-.12.04-.18.16-.17a.9.9 0 0 0 .22-.01c.2-.04.2-.1.02-.16l-.27-.1a.31.31 0 0 1-.14-.11.33.33 0 0 1-.06-.16l-.17-1.87c-.01-.1-.06-.13-.15-.12l-.85.08c-.08 0-.11.05-.1.14.06.25.03.6-.11 1.02-.1.29-.25.27-.52.3-.1.01-.18 0-.25-.01-.04-.01-.06-.04-.07-.08l-.1-1.12c0-.05-.03-.07-.08-.07l-.97.01c.02-.1 0-.18-.05-.26l.02-.34c.01-.06.04-.1.1-.1l.69-.07c.05 0 .1 0 .14.03l.89.53h.03l.04-.03c.03-.02.03-.03 0-.06-.27-.19-.87-.58-.93-.97a5.67 5.67 0 0 1-.05-.63.16.16 0 0 1 .04-.06c.2-.17.43-.2.67-.07Z" fill="#F1F1F1"/><path d="M28.9 27.2c0 .02.02.02.02.03v.32l-.15.03c0-.1-.01-.21-.04-.32-.02-.07-.02-.1.01-.11.03 0 .09.01.16.06Z" fill="#696868"/><path d="M23.42 27.59c.1.09.15.19.15.3 0 .05-.03.08-.08.1l-.2.04a.07.07 0 0 0-.05.05.07.07 0 0 0 .03.08c.1.08.16.14.16.2v.03l-.01.02h-.05c-.25-.07-.84-.35-.89-.7l.94-.12Z" fill="#1E1E1D"/><path d="m35.23 31.76-1.04.13c-.03 0-.07-.01-.09-.03a.12.12 0 0 1-.05-.08L34 31.4l-.1-1.42a.86.86 0 0 1-.07-.5.12.12 0 0 0-.03-.1.11.11 0 0 0-.1-.03l-.84.08a.17.17 0 0 1-.12-.04.18.18 0 0 1-.06-.12l-.06-.63c-.01-.11.03-.18.13-.2l.5-.16c.09.07.21.08.37.03l.89-.1 1.36-.13a.08.08 0 0 1 .06.02.08.08 0 0 1 .03.05l.07.79c0 .05-.02.08-.07.09l-.94.09c-.06 0-.09.04-.08.1l.3 2.55ZM32.15 32.18l-.24.09c-.33-.06-.3-.57-.32-.73-.02-.07-.03-.12-.06-.14l-.13-.1c-.05-.04-.05-.07.01-.1a.2.2 0 0 0 .09-.07.07.07 0 0 0 0-.08.07.07 0 0 0-.02-.02.06.06 0 0 0-.04-.01h-.2c-.05 0-.09.02-.1.08-.04.09-.1.13-.19.12a.84.84 0 0 0-.36.05.13.13 0 0 0-.09.1c-.03.18.01.32.11.42.11.47-.22.67-1.01.6a.12.12 0 0 1-.07-.04.13.13 0 0 1-.04-.08l-.06-.55-.22-2.95.97-.01c.05 0 .07.02.08.07l.1 1.12c0 .04.03.07.06.08.07.02.16.02.26.01.26-.03.43-.02.52-.3.13-.43.17-.77.12-1.03-.02-.08 0-.12.09-.13l.85-.09c.09 0 .13.04.14.12l.18 1.87c0 .06.03.12.06.17.04.05.08.08.14.1l.26.1c.19.08.18.13-.01.17a.9.9 0 0 1-.22 0c-.12 0-.17.06-.16.18l.06.68c0 .04 0 .09-.03.13a.18.18 0 0 1-.1.07l-.43.1ZM29.12 31.98c-1.06 1.1-2.93 1.2-3.48-.42a1.93 1.93 0 0 1-.08-1.06c.09-.37.25-.7.5-.97.88-.71 1.81-.77 2.8-.17.14.08.16.2.08.34l-.19.34c-.08.14-.18.17-.32.1-.48-.24-1.4-.36-1.72.16-.29.46-.18 1.35.48 1.46.37.06.7-.03 1.02-.3a.08.08 0 0 0-.01-.13.08.08 0 0 0-.04-.01l-.74.07c-.08.01-.12-.03-.13-.12l-.05-.55a.14.14 0 0 1 .03-.1.13.13 0 0 1 .08-.05l1.66-.16c.05 0 .07.02.07.06.02.46.05.9.11 1.34.01.06-.01.12-.07.17Z" fill="#E7CF88"/><path d="m25.04 29.35-.9.1a.1.1 0 0 0-.08.1l.34 3.43c0 .05.05.09.1.08l.9-.1a.1.1 0 0 0 .08-.1l-.34-3.42a.1.1 0 0 0-.1-.09ZM23.5 31.98l-.93.08c-.05 0-.08.03-.07.08l.11 1.14-1.05.16-.15-1.46-.2-2.09a.11.11 0 0 1 .02-.08.11.11 0 0 1 .07-.04l2.5-.25c.07 0 .1.03.1.1.01.23.05.44.13.65a.12.12 0 0 1-.02.1.12.12 0 0 1-.08.06l-1.4.14c-.11 0-.17.07-.16.2l.02.16a.16.16 0 0 0 .11.14h.06l1.08-.1c.05 0 .08.01.09.06.15.61.07.92-.22.95Z" fill="#DDBD6D"/><path d="M34 31.4c-.14.03-.24.14-.3.34a.43.43 0 0 1-.1-.39l.3-1.38.1 1.42Z" fill="#878683"/><path d="M31.91 32.27a.3.3 0 0 1 .01.19c-.09.1-.18.11-.26.04-.3-.28-.65-.52-1.05-.7-.1-.11-.13-.25-.1-.42a.14.14 0 0 1 .08-.1.84.84 0 0 1 .36-.05c.1 0 .15-.04.19-.13.01-.05.05-.08.1-.08h.2a.07.07 0 0 1 .07.04.07.07 0 0 1-.01.07.2.2 0 0 1-.09.07c-.06.03-.06.06 0 .1l.12.1c.03.02.05.07.06.14.03.16 0 .67.32.73Z" fill="#F1F1F1"/><path d="m29.43 31.73.06.54c0 .03.02.06.04.08.02.02.04.03.07.03.79.08 1.12-.12 1.01-.59.4.2.75.43 1.05.7.08.08.17.07.26-.03.05-.01.08 0 .1.04.12.24.24.48.37.7.13.5.16 1.01.1 1.54-.01.06.02.1.08.1h.42c.07 0 .07 0 .01.04a.54.54 0 0 1-.33.03.22.22 0 0 0-.18.05.23.23 0 0 0-.09.17c0 .3.02.74-.2 1.03-.2.24-.42.6-.27.91a.55.55 0 0 1-.4-.15 4.1 4.1 0 0 0-1.38-.95c-.15-.06-.22-.15-.32-.27.16.02.28-.02.38-.1.04-.04.03-.07-.01-.1-.25-.14-.51-.23-.8-.26a3.62 3.62 0 0 1-.03-.05l1.36-.24c.15-.02.16-.07.04-.16-.24-.15-.55-.3-.91-.43a.17.17 0 0 1-.09-.25.17.17 0 0 1 .07-.07L31 33.5c.05-.02.08 0 .09.04v.07a.1.1 0 0 1-.01.06.1.1 0 0 1-.04.04l-.26.12a.05.05 0 0 0 0 .09h.03l1.28-.16c.02 0 .04-.01.05-.03l.02-.03c.01-.05 0-.07-.05-.08l-.73-.18.32-.65c.03-.06.01-.1-.05-.12l-.46-.1a.16.16 0 0 0-.13.02c-.27.2-.63.34-1.07.42l-.57-.01-.15-.84c0-.14.06-.28.17-.42Z" fill="#878683"/><path d="m23.5 31.98.33.86c.02.04.02.09.01.13-.03.2-.14.31-.3.35-.3.07-.6.06-.93-.04l-.11-1.14c0-.05.02-.08.07-.08l.94-.08Z" fill="#1E1E1D"/><path d="M33.84 32.07c.1.16.18.33.23.53a.3.3 0 0 1 0 .14c-.1.39-.23.6-.18 1.06.02.16 0 .33-.02.48l-.02-.23a.23.23 0 0 0-.06-.12c-.28-.32-.41-.7-.4-1.11 0-.07-.03-.1-.09-.06-.16.09-.28.13-.35.14-.15.02-.17-.02-.04-.1a.99.99 0 0 1 .43-.16c.05-.01.09-.03.13-.07.15-.14.27-.31.37-.5Z" fill="#878683"/><path d="M32.15 32.18c.28.32.36.66.24 1.02l-.37-.7c-.02-.04-.05-.06-.1-.04a.3.3 0 0 0 0-.2l.23-.08Z" fill="#D1D2D1"/><path d="m31.37 33.42-1.4-.43c.45-.07.8-.2 1.08-.41a.16.16 0 0 1 .13-.03l.46.11c.06.02.08.05.05.11l-.32.65Z" fill="#F1F1F1"/><path d="m29.98 33 1.39.43.73.17c.05.01.06.04.05.09 0 .01 0 .02-.02.03a.07.07 0 0 1-.05.03l-1.28.17-.04-.01-.01-.03a.05.05 0 0 1 .02-.06l.26-.12a.1.1 0 0 0 .04-.04.1.1 0 0 0 .01-.06v-.07c0-.05-.04-.06-.09-.04l-1.15.55a.18.18 0 0 0 .01.32c.38.13.68.28.92.43.12.09.11.14-.04.16l-1.36.24c.11-.72.12-1.46.04-2.2h.57Z" fill="#505050"/><path d="M24.09 36.15a.31.31 0 0 1-.22.13.12.12 0 0 0-.1.1c0 .06.03.12.11.16l.27.13.07.63c0 .05.03.08.08.08.07.01.11 0 .12-.02.14-.2.2-.18.2.06v.33c0 .03.02.04.05.04l.05-.01c.02 0 .03-.02.04-.04l.08-.34a.15.15 0 0 1 .08-.1l.05-.03h.07l.02.04.01.03c0 .1 0 .17.02.23.04.16.1.16.16 0l.1-.3c.03-.06.07-.08.13-.04.05.03.11.1.18.22l.02.01h.03a.04.04 0 0 0 .03-.03c0-.13.04-.21.1-.25.06-.04.1-.02.13.04l.07.15c.02.04.06.06.1.04.05-.01.08-.07.1-.15l-.02.19c0 .07.01.08.06.03l.1-.1c.03-.03.06-.03.1 0 .14.12.3.15.47.07a.17.17 0 0 1 .13 0l.08.05c.06.02.11.02.16 0 .16-.05.22-.17.17-.37a.38.38 0 0 1 .16-.18c.07-.04.12-.03.15.05l.03.06c.02.04.05.05.09.02.08-.06.23-.05.44 0l-.03.16c-.01.06 0 .08.06.08l.34-.02.12-.32c.02-.05.06-.07.1-.07.08 0 .13.06.14.16l.07.55c0 .06.02.06.05.01.03-.06.03-.15.01-.26l.03.24.03.98a.05.05 0 0 1-.02.03l-.01.02h-.07c-.02 0-.04 0-.06-.02a.1.1 0 0 1-.03-.05 1.38 1.38 0 0 0-.31-.6c-.04-.03-.08-.04-.13 0a.48.48 0 0 0-.12.15l-.73-.13a.1.1 0 0 0-.11.05c-.03.05-.03.12.01.2-.03.08-.09.1-.15.1a.1.1 0 0 1-.05-.03.1.1 0 0 1-.03-.06l-.05-.3c-.01-.09-.03-.09-.07 0l-.17.43a.1.1 0 0 1-.08.07.1.1 0 0 1-.1-.04.4.4 0 0 1-.09-.18c-.01-.06-.03-.06-.06 0l-.06.13a.17.17 0 0 1-.1.1l-.48.17.04-.43c0-.17-.05-.19-.16-.05-.1.12-.16.25-.2.4-.01.04-.04.06-.09.03-.06-.02-.1-.1-.14-.21 0-.02-.02-.03-.04-.03h-.05c-.04 0-.06.01-.06.05l.01.38c-.22-.08-.39-.08-.52-.02a.14.14 0 0 1-.13 0c-.14-.05-.26-.03-.37.08-.03.03-.07.04-.1.01a.35.35 0 0 1-.1-.08c-.03-.04-.07-.05-.13-.03l-.19.1a.13.13 0 0 1-.14-.02.14.14 0 0 1-.04-.14l.06-.38c-.01-.07-.03-.08-.07-.03-.15.18-.24.36-.3.55a.14.14 0 0 1-.07.1.13.13 0 0 1-.1-.01c-.08-.03-.12-.1-.12-.2 0-.06 0-.1-.03-.15a.13.13 0 0 0-.11-.08.23.23 0 0 1-.1-.02.14.14 0 0 1-.07-.13v-.14c-.08-.2-.15-.2-.22 0a.48.48 0 0 0 0 .2c-.05.16-.06.3-.05.46 0 .06-.02.1-.07.11-.06.02-.12 0-.19-.05-.08-.07-.13-.21-.14-.42l-.02-.04a.08.08 0 0 0-.09-.03.1.1 0 0 0-.07.07l-.2.52c-.07.15-.12.15-.17 0a.97.97 0 0 1-.02-.5c.02-.15-.02-.17-.12-.06-.09.1-.14.25-.17.46 0 .04-.02.07-.05.09a.13.13 0 0 1-.08.03h-.07a.11.11 0 0 1-.08-.03.12.12 0 0 1-.03-.09v-.27c0-.1-.03-.1-.08-.03-.12.15-.2.34-.21.56-.01.08-.06.13-.13.14-.06 0-.1-.02-.11-.07-.09-.22.07-.34.04-.47a.1.1 0 0 0-.04-.06c-.04-.03-.07-.02-.09.03a.2.2 0 0 1-.03.06c-.03.04-.06.05-.1.04a.19.19 0 0 1-.07-.03.14.14 0 0 1-.06-.13c0-.1-.01-.18-.05-.24-.04-.07-.07-.07-.09 0l-.27 1.08-.03.07a.07.07 0 0 1-.07.04h-.05a.08.08 0 0 1-.05-.08l-.02-.2c.18-.77.4-1.53.5-2.3l.3-1.77a2.64 2.64 0 0 0-.06-1.17.08.08 0 0 1 .04-.06l.03-.01h.06c.04.02.07.05.08.1l.2 1.23-.24.3a.13.13 0 0 0-.02.06c-.05.15-.06.32-.02.5l-.18 1.27a.19.19 0 0 0 .05.15.18.18 0 0 0 .14.06l.13-.02c.1 0 .2.07.27.18.03.04.06.05.1 0l.12-.2c.07-.02.12-.02.16 0 .04.04.06.08.05.13-.03.12-.02.26 0 .41.02.09.05.1.09.01.04-.09.08-.24.12-.47a.1.1 0 0 1 .03-.05.13.13 0 0 1 .08-.04c.05 0 .1.02.11.08l.14.4c.05.14.08.14.12 0 .03-.14.06-.27.11-.38.1-.24.2-.24.28 0l.1.28c.05.1.08.1.1 0 .18-1 .22-2 .12-2.98-.01-.08.02-.11.09-.1h.08c.08 0 .11.04.11.12v2.5c0 .06.03.1.1.09l.16-.02c.07 0 .1-.04.12-.1.17-.81.23-1.61.16-2.4 0-.07.02-.1.08-.08.07.01.11.04.14.07a.06.06 0 0 0 .1 0l.02-.03.07-1.76c0-.07.04-.08.1-.05.04.02.07.05.08.1a2.17 2.17 0 0 1 .06.2l-.03 2.56Z" fill="#F1F1F1"/><path d="M29.07 33.4c-.04.28-.03.55.03.82v1.92c-.05.2-.03.39.05.55-.02.19-.08.2-.19.02a1.02 1.02 0 0 0-.1-.33c-.03-.06-.06-.05-.07 0l-.11.45c-.16.35-.14.5.05.47l-.34.02c-.05 0-.08-.02-.07-.08l.04-.15.29-1.22c.08-.36.13-.76.14-1.2l.06-1.2c0-.06.03-.1.06-.11.04-.01.1 0 .16.05Z" fill="#D1D2D1"/><path d="M29.1 34.22a2.47 2.47 0 0 1-.03-.81c.11.25.12.52.03.8Z" fill="#9F9F9F"/><path d="M33.84 34.63c.14.58.2 1.23.19 1.94 0 .21-.11.35-.31.42a.76.76 0 0 0-.21-.02c-.07 0-.09-.02-.04-.06a.1.1 0 0 0 .03-.05.15.15 0 0 0-.03-.13c-.3-.34-.43-.72-.4-1.13h.1c.03 0 .05-.03.06-.07a2.76 2.76 0 0 0 .05-1.23.1.1 0 0 1 .06-.06.1.1 0 0 1 .04-.01h.08c.12 0 .18.07.2.2l.03.33c0 .07.03.08.1.05.03-.03.05-.09.05-.18Z" fill="#696868"/><path d="m29.83 35.7-.44-.3.01-.16c.29.03.55.12.8.26.04.03.05.06 0 .1-.09.08-.21.12-.37.1Z" fill="#F1F1F1"/><path d="M21.04 37.67a.65.65 0 0 1-.13.2c-.03.04-.06.03-.09 0-.07-.12-.16-.18-.27-.19.12-.46.1-.97-.04-1.53-.03-.07-.05-.08-.08 0l-.02.07c-.04-.18-.03-.35.02-.5l.02-.05.25-.3c.15.73.23 1.47.24 2.23 0 .05.03.07.1.07Z" fill="#878683"/><path d="M29.83 35.7c.1.12.17.21.32.27.48.19.94.5 1.39.95.1.1.22.15.39.15.26.14.56.26.53.64-.01.08.02.12.1.1l.72-.06h.02v-.02a.04.04 0 0 0 0-.04.45.45 0 0 0-.2-.24.39.39 0 0 1-.2-.26.3.3 0 0 1 .01-.15c.02-.05.05-.1.09-.13l.16-.12c.04-.04.05-.08.03-.13-.13-.27-.2-.54-.22-.8a.27.27 0 0 0-.02-.1l-.07-.15c-.03-.06-.01-.08.05-.07.09.02.13.04.14.06-.03.41.1.79.4 1.13a.14.14 0 0 1 .03.13.1.1 0 0 1-.03.05c-.05.04-.03.06.04.06.08 0 .15 0 .21.02.05.22.14.4.26.57a.12.12 0 0 1 .02.1.12.12 0 0 1-.07.09l-.36.17a.22.22 0 0 0-.1.1c-.14.28-.32.38-.55.3-.3-.25-.49-.27-.56-.06a.82.82 0 0 1-.6-.18c-.05-.04-.06-.07-.02-.12.04-.04.1-.06.18-.07a.07.07 0 0 0 .05-.1l-.02-.03a.05.05 0 0 0-.04-.03 8.34 8.34 0 0 1-1.86-.17c-.3-.06-.57-.04-.8.05l-.03-.24c.02-.26 0-.48-.07-.68a.84.84 0 0 1-.05-.55.6.6 0 0 0 .08.14.1.1 0 0 0 .12.03.11.11 0 0 0 .07-.1l.03-.8.43.29Z" fill="#505050"/><path d="M24.15 36.67a6.84 6.84 0 0 0-.27-.13c-.08-.04-.12-.1-.1-.16a.12.12 0 0 1 .1-.1c.1-.01.16-.06.21-.13.06.16.08.33.06.52Z" fill="#878683"/><path d="M28.97 36.71c-.07.19-.16.23-.3.12l.12-.44c.01-.06.04-.07.07-.01.05.1.09.21.1.33Z" fill="#505050"/><path d="M29.22 37.37c.02.1.02.2-.01.26-.03.05-.05.05-.05 0a9.09 9.09 0 0 0-.07-.56c-.01-.1-.06-.15-.13-.16-.05 0-.09.02-.1.07l-.13.32c-.2.03-.2-.12-.05-.47.13.1.22.07.29-.12.1.17.16.17.18-.02.06.2.09.42.07.68Z" fill="#9F9F9F"/><path d="M23.8 36.91a.01.01 0 0 1 .01-.01h.01c.02.01.04.03.06.07a.4.4 0 0 1 .02.13 1.51 1.51 0 0 1-.06.4l-.02.06a1.5 1.5 0 0 1-.17.36.38.38 0 0 1-.1.1c-.03.01-.06.02-.08.01h-.01V38l.33-1.1Z" fill="#1E1E1D"/><path d="M27.5 37.13c.04.2-.02.32-.18.37a.24.24 0 0 1-.16 0l-.08-.04a.17.17 0 0 0-.13 0 .42.42 0 0 1-.47-.08c-.04-.03-.07-.03-.1 0l-.1.1c-.05.05-.07.04-.06-.03l.01-.2c-.01-.26.2-.26.61 0l.04.01a.08.08 0 0 0 .1-.07c0-.05.01-.08.03-.11.03-.06.07-.06.12-.02.07.05.11.12.14.2 0 .02 0 .03.02.03 0 .01.01.02.03.02.07.02.13-.04.17-.18Z" fill="#D1D2D1"/><path d="M24.08 37.72a.05.05 0 0 1 .05-.03c.05 0 .08.02.1.06a.1.1 0 0 1-.03.11.1.1 0 0 1-.1.03c-.07-.01-.09-.05-.05-.11l.03-.06Z" fill="#505050"/><path d="M28.53 38.12c-.17.4-.28.82-.34 1.28-.02.16-.09.26-.2.3a.13.13 0 0 1-.13-.03.14.14 0 0 1-.04-.14l.25-1.06c.01-.05 0-.09-.05-.1l-.32-.12c-.04-.09-.04-.16-.01-.21.02-.05.06-.06.11-.05l.73.13Z" fill="#D1D2D1"/><path d="M23.2 38.7a.3.3 0 0 0-.18.1.15.15 0 0 1-.12.06c-.03 0-.06 0-.08-.02a.13.13 0 0 1-.06-.12c0-.16-.03-.27-.1-.33a.48.48 0 0 1 .01-.2c.07-.22.14-.22.22 0v.13a.14.14 0 0 0 .08.13l.09.02c.05 0 .09.03.11.08.02.04.03.09.03.14Z" fill="#9F9F9F"/><path d="M26.2 38.63c-.09-.1-.2-.1-.32 0a.2.2 0 0 1-.12.06c-.1 0-.19.03-.24.08v-.38c0-.04.01-.05.05-.05h.05c.02 0 .04 0 .04.03.04.12.08.19.14.22.05.02.08 0 .1-.05.03-.14.1-.27.2-.4s.16-.11.15.06l-.04.43Z" fill="#878683"/><path d="M32.92 38.33c-.23.04-.42.02-.56-.07.07-.2.26-.19.56.07Z" fill="#D1D2D1"/><path d="m31.65 39.04 1.36.21a.08.08 0 0 1 .07.08l.01.1c0 .03-.01.05-.05.05l-1.64-.26c-.05 0-.08-.04-.08-.1 0-.18.01-.76.15-.92a.08.08 0 0 1 .1-.03c.02 0 .03.02.04.04l.01.05-.03.7c0 .05.02.08.06.08ZM24.18 38.38c-.04.1-.03.19.02.21.05.02.13-.03.17-.13.04-.09.03-.19-.02-.21-.05-.02-.13.03-.17.13Z" fill="#1E1E1D"/><path d="M24.78 38.5c.06 0 .11-.04.11-.08s-.06-.07-.12-.07-.11.04-.11.08.05.07.12.07Z" fill="#9F9F9F"/><path d="M33.06 38.78a.3.3 0 0 0-.01-.19l.26-.09c.06-.02.1 0 .12.06a.4.4 0 0 1 0 .2.1.1 0 0 1-.03.06.1.1 0 0 1-.07.02l-.27-.06Z" fill="#505050"/><path d="M33.05 38.6a.3.3 0 0 1 .01.18c-.12.04-.21.02-.27-.08-.03-.05-.02-.09.03-.11.06-.03.13-.03.23 0Z" fill="#D1D2D1"/><path d="m17.12 42.37.04-.78a.5.5 0 0 1 .47.07c.04.04.07.08.07.14v.42a.1.1 0 0 0 .08.05h.04c.12-.05.17-.14.14-.28-.04-.22 0-.35.13-.4.05-.03.07-.07.06-.12 0-.12-.1-.19-.27-.18h-.74a.4.4 0 0 1 0-.19l.38-.05c.05-.01.08-.04.07-.1a.64.64 0 0 1 .06-.37.18.18 0 0 0 0-.14.53.53 0 0 0-.15-.22.18.18 0 0 1-.06-.16.18.18 0 0 1 .1-.14c.07-.04.12-.1.13-.18a.86.86 0 0 1 .06-.21c.06-.1.13-.15.23-.14.05 0 .08.03.08.09l-.05 1.24a.1.1 0 0 1-.06.09l-.05.02a.08.08 0 0 0-.03.03.08.08 0 0 0 0 .09l.03.03c.2.09.34.11.42.08.08-.03.12 0 .12.08v1.08c0 .04-.02.07-.04.1a.13.13 0 0 1-.09.03l-1.17.02Z" fill="#EEB55D"/><path d="M38.81 39.81c-.15.15-.33.16-.53.04.07-.1.14-.18.21-.23a.1.1 0 0 1 .13 0c.08.05.14.11.2.2Z" fill="#AF7737"/><path d="m38.99 39.88-.12 1.67-.03.73a.1.1 0 0 1-.03.06.1.1 0 0 1-.06.03l-1.18-.06a.16.16 0 0 1-.13-.08.17.17 0 0 1-.02-.15c.07-.15.1-.33.07-.52-.01-.14.06-.2.23-.16l.1.04c.15.07.2.18.17.34-.04.18.02.32.19.4a.15.15 0 0 0 .21-.08.17.17 0 0 0 .01-.09c-.04-.25 0-.46.12-.62a.07.07 0 0 0 0-.07.07.07 0 0 0-.04-.05c-.28-.07-.44-.14-.49-.2-.03-.05-.02-.08.03-.09a.3.3 0 0 0 .12-.04c0-.1.04-.18.09-.21.05-.04.09-.03.12.02.1.12.19.2.29.21h.12c.06-.04.06-.07 0-.1a.37.37 0 0 1-.12-.12c-.03-.06-.02-.1.03-.14l.07-.04c.05-.02.06-.06.06-.1a.28.28 0 0 0-.02-.08.11.11 0 0 0-.12-.07.5.5 0 0 0-.38.2.08.08 0 0 1-.08.04.08.08 0 0 1-.04-.02.08.08 0 0 1-.02-.04c-.06-.36-.01-.58.14-.64.2.12.38.1.53-.04l.18.06Z" fill="#EEB55D"/><path d="M17.16 41.6a.6.6 0 0 1-.02-.3l.75-.02c.17 0 .26.06.26.19 0 .05-.01.09-.06.11-.13.06-.17.2-.13.4.03.15-.02.24-.14.28a.1.1 0 0 1-.08-.01.1.1 0 0 1-.04-.08v-.37c0-.06-.03-.1-.07-.14a.5.5 0 0 0-.47-.07Z" fill="#C69749"/><path d="m37.87 42.76-5.09-.02c-2-.1-3.98-.14-5.95-.1l-2.96.05c-1.86 0-3.7.01-5.55.03-.08 0-.1-.03-.06-.1l.06-.1.02-.01c.4-.08.66-.12.77-.12 3.48-.01 7.35 0 11.62.02 3.85.02 5.92.02 6.2.01.55-.02.86.1.94.34Z" fill="#EEB55D"/><defs><linearGradient id="a" x1="28" y1="0" x2="28" y2="56" gradientUnits="userSpaceOnUse"><stop stop-color="#1E1E1D"/><stop offset="1" stop-color="#010101"/></linearGradient></defs></svg>